<?xml version="1.0" encoding="UTF-8"?>
<!-- Generator: Adobe Illustrator 15.1.0, SVG Export Plug-In . SVG Version: 6.00 Build 0)  -->
<!DOCTYPE svg PUBLIC "-//W3C//DTD SVG 1.1//EN" "http://www.w3.org/Graphics/SVG/1.1/DTD/svg11.dtd">
<svg version="1.1" id="Layer_1" xmlns="http://www.w3.org/2000/svg" xmlns:xlink="http://www.w3.org/1999/xlink" x="0px" y="0px" width="169.672px" height="58.874px" viewBox="222.251 367.689 169.672 58.874" enable-background="new 222.251 367.689 169.672 58.874" xml:space="preserve">
<g>
	<path fill="#010101" stroke="#FFFFFF" stroke-width="1.1758" stroke-miterlimit="10" d="M391.335,417.674   c0,5.119-3.761,8.301-8.875,8.301H232.105c-5.116,0-9.266-4.151-9.266-9.271v-39.159c0-5.118,4.149-9.268,9.266-9.268H382.46   c5.114,0,8.875,4.15,8.875,9.268V417.674z"/>
	<path fill="#010101" stroke="#FFFFFF" stroke-width="1.1758" stroke-miterlimit="10" d="M391.335,417.674   c0,5.119-3.761,8.301-8.875,8.301H232.105c-5.116,0-9.266-4.151-9.266-9.271v-39.159c0-5.118,4.149-9.268,9.266-9.268H382.46   c5.114,0,8.875,4.15,8.875,9.268V417.674z"/>
	<g>
		<g>
			<path fill="#FFFFFF" d="M337.988,409.692l-1.267,1.193c-0.291,0.159-0.582,0.348-0.873,0.479     c-0.878,0.399-1.771,0.499-2.564,0.499c-0.847,0-2.17-0.055-3.521-1.032c-1.879-1.322-2.698-3.594-2.698-5.576     c0-4.102,3.34-6.112,6.062-6.112c0.952,0,1.929,0.239,2.724,0.741c1.322,0.873,1.664,2.01,1.854,2.618l-6.219,2.513l-2.038,0.158     c0.66,3.361,2.936,5.316,5.449,5.316c1.256,0,2.188-0.408,3.043-0.831C337.939,409.659,338.111,409.57,337.988,409.692z      M334.236,403.004c0.505-0.184,0.768-0.343,0.768-0.711c0-1.057-1.195-2.275-2.621-2.275c-1.057,0-3.041,0.822-3.041,3.681     c0,0.444,0.053,0.92,0.08,1.396L334.236,403.004z"/>
			<path fill="#FFFFFF" d="M324.986,409.486c0,1.028,0.184,1.188,1.053,1.27c0.453,0.053,0.905,0.076,1.354,0.131l-0.979,0.581     h-4.66c0.611-0.792,0.715-0.871,0.715-1.398v-0.593l-0.01-15.726H320.4l1.98-0.955h3.782c-0.819,0.475-1.065,0.763-1.171,1.688     L324.986,409.486z"/>
			<path fill="#FFFFFF" d="M317.758,400.441c0.606,0.5,1.874,1.559,1.874,3.568c0,1.958-1.104,2.882-2.218,3.757     c-0.342,0.344-0.741,0.718-0.741,1.296c0,0.584,0.399,0.9,0.688,1.139l0.957,0.736c1.159,0.98,2.22,1.881,2.22,3.706     c0,2.488-2.407,4.996-6.958,4.996c-3.834,0-5.687-1.823-5.687-3.78c0-0.954,0.474-2.303,2.038-3.228     c1.641-1.002,3.862-1.137,5.053-1.214c-0.372-0.48-0.796-0.983-0.796-1.802c0-0.449,0.136-0.717,0.265-1.032     c-0.289,0.028-0.58,0.058-0.846,0.058c-2.806,0-4.394-2.096-4.394-4.155c0-1.218,0.557-2.566,1.695-3.545     c1.508-1.242,3.307-1.457,4.733-1.457h5.451l-1.692,0.957H317.758z M315.883,412.185c-0.217-0.027-0.348-0.027-0.608-0.027     c-0.239,0-1.668,0.053-2.775,0.424c-0.584,0.215-2.277,0.846-2.277,2.725c0,1.875,1.827,3.229,4.653,3.229     c2.54,0,3.889-1.218,3.889-2.856C318.763,414.328,317.891,413.615,315.883,412.185z M316.643,407.158     c0.613-0.611,0.665-1.453,0.665-1.933c0-1.901-1.134-4.865-3.333-4.865c-0.686,0-1.429,0.344-1.852,0.876     c-0.445,0.552-0.579,1.267-0.579,1.953c0,1.771,1.032,4.71,3.304,4.71C315.512,407.899,316.225,407.576,316.643,407.158z"/>
			<path fill="#FFFFFF" d="M301.358,411.811c-4.205,0-6.454-3.274-6.454-6.238c0-3.464,2.828-6.429,6.85-6.429     c3.888,0,6.324,3.044,6.324,6.241C308.078,408.506,305.671,411.811,301.358,411.811z M304.666,409.67     c0.64-0.846,0.794-1.902,0.794-2.933c0-2.329-1.11-6.772-4.391-6.772c-0.872,0-1.75,0.341-2.383,0.898     c-1.035,0.925-1.218,2.087-1.218,3.229c0,2.613,1.292,6.924,4.499,6.924C303.001,411.016,304.056,410.516,304.666,409.67z"/>
			<path fill="#FFFFFF" d="M287.28,411.811c-4.206,0-6.451-3.274-6.451-6.238c0-3.464,2.83-6.429,6.85-6.429     c3.887,0,6.319,3.044,6.319,6.241C293.998,408.506,291.595,411.811,287.28,411.811z M290.589,409.67     c0.634-0.846,0.793-1.902,0.793-2.933c0-2.329-1.113-6.772-4.391-6.772c-0.875,0-1.745,0.341-2.379,0.898     c-1.036,0.925-1.218,2.087-1.218,3.229c0,2.613,1.296,6.924,4.497,6.924C288.925,411.016,289.979,410.516,290.589,409.67z"/>
			<path fill="#FFFFFF" d="M279.148,410.893l-3.547,0.812c-1.436,0.228-2.726,0.427-4.092,0.427c-6.84,0-9.447-5.035-9.447-8.976     c0-4.812,3.693-9.274,10.017-9.274c1.337,0,2.625,0.196,3.798,0.515c1.858,0.523,2.728,1.167,3.271,1.544l-2.061,1.958     l-0.869,0.192l0.619-0.986c-0.838-0.819-2.38-2.332-5.306-2.332c-3.913,0-6.864,2.973-6.864,7.317     c0,4.662,3.371,9.049,8.774,9.049c1.589,0,2.406-0.319,3.147-0.616v-3.998l-3.744,0.2l1.985-1.065h5.254l-0.644,0.619     c-0.173,0.147-0.195,0.196-0.244,0.396c-0.026,0.227-0.05,0.943-0.05,1.196v3.022H279.148z"/>
		</g>
		<g>
			<path fill="#FFFFFF" d="M345.613,409.805v6.738h-1.338v-17.145h1.338v1.951c0.871-1.261,2.464-2.261,4.313-2.261     c3.317,0,5.554,2.517,5.554,6.5c0,3.958-2.235,6.527-5.554,6.527C348.181,412.117,346.617,411.217,345.613,409.805z      M354.043,405.59c0-3.003-1.565-5.293-4.342-5.293c-1.724,0-3.371,1.354-4.088,2.535v5.488c0.717,1.183,2.364,2.588,4.088,2.588     C352.478,410.908,354.043,408.598,354.043,405.59z"/>
			<path fill="#FFFFFF" d="M357.307,411.809v-17.144h1.34v17.144H357.307z"/>
			<path fill="#FFFFFF" d="M373.659,415.434c0.285,0.128,0.773,0.207,1.083,0.207c0.817,0,1.389-0.336,1.899-1.518l0.978-2.211     l-5.271-12.514h1.492l4.522,10.845l4.478-10.845h1.514l-6.43,15.139c-0.666,1.561-1.716,2.311-3.158,2.311     c-0.433,0-1.002-0.078-1.337-0.18L373.659,415.434z"/>
			<path fill="#FFFFFF" d="M369.75,411.771c-0.09-0.432-0.156-0.81-0.205-1.127c-0.041-0.314-0.063-0.64-0.063-0.968     c-0.459,0.674-1.109,1.234-1.938,1.676c-0.831,0.443-1.62,0.662-2.704,0.662c-1.303,0-2.313-0.319-3.037-0.971     c-0.72-0.65-1.082-1.531-1.082-2.645c0-1.114,0.525-2.017,1.57-2.705c1.046-0.695,2.397-1.038,4.07-1.038h3.121v-1.544     c0-0.89-0.304-1.586-0.908-2.094c-0.606-0.507-1.458-0.762-2.562-0.762c-1.01,0-1.828,0.233-2.45,0.689     c-0.617,0.466-0.929,1.042-0.929,1.737h-1.37l-0.026-0.066c-0.05-0.938,0.378-1.76,1.291-2.469     c0.905-0.711,2.097-1.066,3.561-1.066c1.456,0,2.638,0.352,3.528,1.051c0.889,0.693,1.334,1.697,1.334,3.008v6.122     c0,0.439,0.021,0.864,0.076,1.278c0.058,0.415,0.146,0.828,0.268,1.229L369.75,411.771L369.75,411.771z M365.002,410.797     c1.137,0,1.953-0.254,2.789-0.757c0.828-0.499,1.394-1.149,1.689-1.938v-2.384h-3.136c-1.198,0-2.188,0.266-2.97,0.8     c-0.781,0.533-1.179,1.179-1.179,1.93c0,0.708,0.252,1.272,0.75,1.701C363.447,410.582,364.131,410.797,365.002,410.797z"/>
		</g>
	</g>
	<g>
		<g>
			<path fill="#FFFFFF" d="M262.118,380.601c0-2.634,1.958-4.329,4.392-4.329c1.631,0,2.698,0.778,3.362,1.731l-1.191,0.69     c-0.452-0.626-1.243-1.116-2.171-1.116c-1.656,0-2.886,1.255-2.886,3.023c0,1.745,1.23,3.024,2.886,3.024     c0.853,0,1.605-0.389,1.982-0.751v-1.294h-2.509v-1.292h3.964v3.125c-0.815,0.916-1.995,1.531-3.438,1.531     C264.076,384.943,262.118,383.224,262.118,380.601z"/>
			<path fill="#FFFFFF" d="M271.764,384.78v-8.37h5.734v1.292h-4.266v2.158h4.178v1.292h-4.178v2.334h4.266v1.293L271.764,384.78     L271.764,384.78z"/>
			<path fill="#FFFFFF" d="M281.56,384.78v-7.077h-2.534v-1.292h6.536v1.292h-2.534v7.077H281.56z"/>
			<path fill="#FFFFFF" d="M290.664,384.78v-8.37h1.468v8.37H290.664z"/>
			<path fill="#FFFFFF" d="M296.219,384.78v-7.077h-2.534v-1.292h6.536v1.292h-2.534v7.077H296.219z"/>
			<path fill="#FFFFFF" d="M304.96,380.601c0-2.497,1.769-4.329,4.279-4.329c2.496,0,4.277,1.832,4.277,4.329     s-1.781,4.329-4.277,4.329C306.729,384.93,304.96,383.098,304.96,380.601z M312.012,380.601c0-1.73-1.092-3.023-2.771-3.023     c-1.694,0-2.773,1.292-2.773,3.023c0,1.72,1.079,3.024,2.773,3.024C310.92,383.625,312.012,382.321,312.012,380.601z"/>
			<path fill="#FFFFFF" d="M321.065,384.78l-4.366-5.985v5.985h-1.467v-8.37h1.506l4.276,5.796v-5.796h1.47v8.37H321.065z"/>
		</g>
	</g>
	<g>
		<polygon fill="none" points="244.59,404.892 248.883,400.6 248.882,400.6 244.59,404.892 230.891,391.192 230.89,391.192     244.59,404.894 230.868,418.615 230.868,418.615 244.59,404.894 248.902,409.205 248.904,409.205   "/>

			<linearGradient id="SVGID_1_" gradientUnits="userSpaceOnUse" x1="727.4922" y1="886.9492" x2="709.4041" y2="898.2695" gradientTransform="matrix(0.7071 0.7071 0.7071 -0.7071 -899.868 516.5412)">
			<stop offset="0" style="stop-color:#D7E69D"/>
			<stop offset="0.4456" style="stop-color:#94C4AA"/>
			<stop offset="1" style="stop-color:#01A4B6"/>
		</linearGradient>
		<path fill="url(#SVGID_1_)" d="M248.882,400.6l-16.726-9.197c-0.473-0.259-0.912-0.319-1.265-0.21l13.7,13.699L248.882,400.6z"/>

			<linearGradient id="SVGID_2_" gradientUnits="userSpaceOnUse" x1="716.9775" y1="896.6211" x2="740.4282" y2="890.4908" gradientTransform="matrix(0.7071 0.7071 0.7071 -0.7071 -899.868 516.5412)">
			<stop offset="0" style="stop-color:#ED277B"/>
			<stop offset="0.0192" style="stop-color:#EE2F7C"/>
			<stop offset="0.7039" style="stop-color:#F7BD81"/>
			<stop offset="1" style="stop-color:#FEEB74"/>
		</linearGradient>
		<path fill="url(#SVGID_2_)" d="M248.904,409.205l5.709-3.141c1.158-0.64,1.158-1.679,0-2.314l-5.73-3.15l-4.292,4.292    L248.904,409.205z"/>

			<linearGradient id="SVGID_3_" gradientUnits="userSpaceOnUse" x1="730.0674" y1="878.3633" x2="704.6365" y2="893.3253" gradientTransform="matrix(0.7071 0.7071 0.7071 -0.7071 -899.868 516.5412)">
			<stop offset="0" style="stop-color:#89CFBD"/>
			<stop offset="0.0907" style="stop-color:#7DBEBB"/>
			<stop offset="0.5396" style="stop-color:#457CAC"/>
			<stop offset="0.8523" style="stop-color:#1C5AA2"/>
			<stop offset="1" style="stop-color:#084D9F"/>
		</linearGradient>
		<path fill="url(#SVGID_3_)" d="M230.89,391.192c-0.508,0.159-0.838,0.675-0.838,1.454l0.003,24.522c0,0.77,0.32,1.277,0.813,1.446    l13.723-13.723L230.89,391.192z"/>

			<linearGradient id="SVGID_4_" gradientUnits="userSpaceOnUse" x1="739.3018" y1="890.2432" x2="723.6417" y2="869.6118" gradientTransform="matrix(0.7071 0.7071 0.7071 -0.7071 -899.868 516.5412)">
			<stop offset="0" style="stop-color:#F04A2B"/>
			<stop offset="0.4704" style="stop-color:#B54F6B"/>
			<stop offset="0.8353" style="stop-color:#8B5191"/>
			<stop offset="1" style="stop-color:#7851A1"/>
		</linearGradient>
		<path fill="url(#SVGID_4_)" d="M230.868,418.615c0.357,0.121,0.804,0.063,1.288-0.201l16.747-9.209l-4.312-4.312L230.868,418.615z    "/>
	</g>
</g>
</svg>
